<svg xmlns="http://www.w3.org/2000/svg" width="47.919" height="40.758" viewBox="0 0 47.919 40.758"><g transform="translate(-0.12 -0.12)"><g transform="translate(0 0)"><path d="M36.611,5.574,32.037,1,8.626,24.411,13.2,28.985A3.406,3.406,0,0,1,18.017,33.8l4.574,4.574L46,14.965l-4.574-4.574a3.406,3.406,0,0,1-4.816-4.816Z" transform="translate(1.038 0.121)" fill="none" stroke="#111" stroke-linejoin="round" stroke-width="2"/><path d="M17.4,19.512l4.347-1.455.8-4.342L25.4,17.25l4.248-.443-2.355,3.663,1.6,4.047-4.083-1.25-3.485,2.922.059-4.414Z" transform="translate(2.094 1.651)" fill="none" stroke="#111" stroke-linejoin="round" stroke-width="2"/><path d="M38.582,20.61l-2.654-2.654M34.6,16.629l-2.655-2.655m-1.326-1.326L27.964,9.992M26.636,8.664,23.982,6.01" transform="translate(2.886 0.724)" fill="none" stroke="#111" stroke-linejoin="round" stroke-width="2"/><path d="M23.944,5.542,22.481,3.956,1,25.437l4.573,4.574a3.406,3.406,0,0,1,4.816,4.816L14.964,39.4l3-3" transform="translate(0.12 0.476)" fill="none" stroke="#111" stroke-linejoin="round" stroke-width="2"/></g></g></svg>